# xmcd
#
# Track frame offsets:
#	150
#	17648
#	31103
#	50138
#	65386
#	81144
#	93467
#	110800
#	126925
#	144640
#
# Disc length: 2174 seconds
#
# Revision: 1
# Processed by: cddbd v1.5.2PL0 Copyright (c) Steve Scherf et al.
# Submitted via: audiograbber 1.83.01
#
DISCID=89087c0a
DTITLE=Ed Bruce - I Write It Down
DYEAR=1982
DGENRE=Country
TTITLE0=My First Taste Of Texas
TTITLE1=Ever, Never Lovin' You
TTITLE2=Somebody's Crying
TTITLE3=On More Shot Of "Old Back Home Again"
TTITLE4=The Songwriter ( I Write It Down )
TTITLE5=Theme From "Bret Maverick"
TTITLE6=Memories Can't Stand To Be Alone
TTITLE7=Your Jukebox Could Use A Few More Sad Songs
TTITLE8=Baby In Arms
TTITLE9=Mammas Don't Let Your Babies Grow Up To Be Cowboys
EXTD=
EXTT0=
EXTT1=
EXTT2=
EXTT3=
EXTT4=
EXTT5=
EXTT6=
EXTT7=
EXTT8=
EXTT9=
PLAYORDER=
